{
  "accessors": [
    {
      "bufferView": 2,
      "componentType": 5126,
      "count": 68,
      "max": [
        20.23552894592285,
        13.084247589111328,
        6.437139511108398
      ],
      "min": [
        -20.23552894592285,
        12.354080200195313,
        4.171915054321289
      ],
      "type": "VEC3"
    },
    {
      "bufferView": 2,
      "byteOffset": 816,
      "componentType": 5126,
      "count": 68,
      "max": [
        0.20630976557731628,
        -0.977827250957489,
        0.09294717013835907
      ],
      "min": [
        -0.20630985498428345,
        -0.9955824017524719,
        -0.1502341330051422
      ],
      "type": "VEC3"
    },
    {
      "bufferView": 1,
      "componentType": 5126,
      "count": 68,
      "max": [
        0.9897079467773438,
        0.9853193759918213
      ],
      "min": [
        0.012005012482404709,
        0.013871889561414719
      ],
      "type": "VEC2"
    },
    {
      "bufferView": 0,
      "componentType": 5125,
      "count": 180,
      "type": "SCALAR"
    },
    {
      "bufferView": 2,
      "byteOffset": 1632,
      "componentType": 5126,
      "count": 386,
      "max": [
        11.729204177856445,
        33.500003814697266,
        33.500003814697266
      ],
      "min": [
        -15.785442352294922,
        -33.500003814697266,
        -33.500003814697266
      ],
      "type": "VEC3"
    },
    {
      "bufferView": 2,
      "byteOffset": 6264,
      "componentType": 5126,
      "count": 386,
      "max": [
        1.0,
        1.0,
        0.9944637417793274
      ],
      "min": [
        -1.0,
        -1.0,
        -0.9944634437561035
      ],
      "type": "VEC3"
    },
    {
      "bufferView": 3,
      "componentType": 5126,
      "count": 386,
      "max": [
        0.5565939545631409,
        0.9966200590133667,
        1.0,
        1.0
      ],
      "min": [
        -0.5565935969352722,
        -0.9966199398040771,
        -1.0,
        -1.0
      ],
      "type": "VEC4"
    },
    {
      "bufferView": 1,
      "byteOffset": 544,
      "componentType": 5126,
      "count": 386,
      "max": [
        1.0,
        1.0
      ],
      "min": [
        0.0,
        0.003934845328330994
      ],
      "type": "VEC2"
    },
    {
      "bufferView": 1,
      "byteOffset": 3632,
      "componentType": 5126,
      "count": 386,
      "max": [
        0.0,
        0.0
      ],
      "min": [
        0.0,
        0.0
      ],
      "type": "VEC2"
    },
    {
      "bufferView": 0,
      "byteOffset": 720,
      "componentType": 5125,
      "count": 1398,
      "type": "SCALAR"
    },
    {
      "bufferView": 2,
      "byteOffset": 10896,
      "componentType": 5126,
      "count": 213,
      "max": [
        4.40017557144165,
        14.830774307250977,
        14.830771446228027
      ],
      "min": [
        0.44678202271461487,
        -14.830778121948242,
        -14.830771446228027
      ],
      "type": "VEC3"
    },
    {
      "bufferView": 2,
      "byteOffset": 13452,
      "componentType": 5126,
      "count": 213,
      "max": [
        1.0,
        1.0,
        0.9944632649421692
      ],
      "min": [
        0.0,
        -1.0,
        -0.9944632649421692
      ],
      "type": "VEC3"
    },
    {
      "bufferView": 1,
      "byteOffset": 6720,
      "componentType": 5126,
      "count": 213,
      "max": [
        1.0,
        0.8600000143051147
      ],
      "min": [
        0.0,
        0.5862500071525574
      ],
      "type": "VEC2"
    },
    {
      "bufferView": 1,
      "byteOffset": 8424,
      "componentType": 5126,
      "count": 213,
      "max": [
        0.0,
        0.0
      ],
      "min": [
        0.0,
        0.0
      ],
      "type": "VEC2"
    },
    {
      "bufferView": 0,
      "byteOffset": 6312,
      "componentType": 5125,
      "count": 630,
      "type": "SCALAR"
    },
    {
      "bufferView": 2,
      "byteOffset": 16008,
      "componentType": 5126,
      "count": 1369,
      "max": [
        11.646162986755371,
        25.69161605834961,
        25.58654022216797
      ],
      "min": [
        -15.326377868652344,
        -25.691621780395508,
        -25.515138626098633
      ],
      "type": "VEC3"
    },
    {
      "bufferView": 2,
      "byteOffset": 32436,
      "componentType": 5126,
      "count": 1369,
      "max": [
        1.0,
        1.0,
        0.9988232851028442
      ],
      "min": [
        -4.478970367927104e-05,
        -1.0,
        -0.9988137483596802
      ],
      "type": "VEC3"
    },
    {
      "bufferView": 1,
      "byteOffset": 10128,
      "componentType": 5126,
      "count": 1369,
      "max": [
        0.0,
        0.0
      ],
      "min": [
        0.0,
        0.0
      ],
      "type": "VEC2"
    },
    {
      "bufferView": 1,
      "byteOffset": 21080,
      "componentType": 5126,
      "count": 1369,
      "max": [
        1.0,
        1.0
      ],
      "min": [
        0.0,
        0.0
      ],
      "type": "VEC2"
    },
    {
      "bufferView": 0,
      "byteOffset": 8832,
      "componentType": 5125,
      "count": 2322,
      "type": "SCALAR"
    },
    {
      "bufferView": 2,
      "byteOffset": 48864,
      "componentType": 5126,
      "count": 465,
      "max": [
        10.528322219848633,
        4.869114875793457,
        5.620441913604736
      ],
      "min": [
        6.830907821655273,
        -5.680392742156982,
        -5.262954235076904
      ],
      "type": "VEC3"
    },
    {
      "bufferView": 2,
      "byteOffset": 54444,
      "componentType": 5126,
      "count": 465,
      "max": [
        0.9791843295097351,
        0.9996510744094849,
        0.9992421269416809
      ],
      "min": [
        -3.518909579725005e-05,
        -0.9996821284294128,
        -0.9991773962974548
      ],
      "type": "VEC3"
    },
    {
      "bufferView": 1,
      "byteOffset": 32032,
      "componentType": 5126,
      "count": 465,
      "max": [
        0.0,
        0.0
      ],
      "min": [
        0.0,
        0.0
      ],
      "type": "VEC2"
    },
    {
      "bufferView": 1,
      "byteOffset": 35752,
      "componentType": 5126,
      "count": 465,
      "max": [
        1.0,
        1.0
      ],
      "min": [
        0.0,
        0.0
      ],
      "type": "VEC2"
    },
    {
      "bufferView": 0,
      "byteOffset": 18120,
      "componentType": 5125,
      "count": 810,
      "type": "SCALAR"
    },
    {
      "bufferView": 2,
      "byteOffset": 60024,
      "componentType": 5126,
      "count": 458,
      "max": [
        11.646162986755371,
        25.058454513549805,
        25.17304229736328
      ],
      "min": [
        6.5762176513671875,
        -25.06365966796875,
        -24.945409774780273
      ],
      "type": "VEC3"
    },
    {
      "bufferView": 2,
      "byteOffset": 65520,
      "componentType": 5126,
      "count": 458,
      "max": [
        1.0,
        0.5955474972724915,
        0.5881183743476868
      ],
      "min": [
        0.5548563599586487,
        -0.6253005266189575,
        -0.7864342927932739
      ],
      "type": "VEC3"
    },
    {
      "bufferView": 1,
      "byteOffset": 39472,
      "componentType": 5126,
      "count": 458,
      "max": [
        0.0,
        0.0
      ],
      "min": [
        0.0,
        0.0
      ],
      "type": "VEC2"
    },
    {
      "bufferView": 1,
      "byteOffset": 43136,
      "componentType": 5126,
      "count": 458,
      "max": [
        1.0,
        1.0
      ],
      "min": [
        0.0,
        0.0
      ],
      "type": "VEC2"
    },
    {
      "bufferView": 0,
      "byteOffset": 21360,
      "componentType": 5125,
      "count": 1074,
      "type": "SCALAR"
    },
    {
      "bufferView": 2,
      "byteOffset": 71016,
      "componentType": 5126,
      "count": 227,
      "max": [
        4.989067554473877,
        13.943741798400879,
        -12.883060455322266
      ],
      "min": [
        0.3119328022003174,
        -13.943632125854492,
        -21.58818817138672
      ],
      "type": "VEC3"
    },
    {
      "bufferView": 2,
      "byteOffset": 73740,
      "componentType": 5126,
      "count": 227,
      "max": [
        1.0,
        0.9995630383491516,
        1.0
      ],
      "min": [
        -1.0,
        -0.9995630383491516,
        -1.0
      ],
      "type": "VEC3"
    },
    {
      "bufferView": 1,
      "byteOffset": 46800,
      "componentType": 5126,
      "count": 227,
      "max": [
        0.534500002861023,
        0.544374942779541
      ],
      "min": [
        0.43549999594688416,
        0.2693749964237213
      ],
      "type": "VEC2"
    },
    {
      "bufferView": 0,
      "byteOffset": 25656,
      "componentType": 5125,
      "count": 642,
      "type": "SCALAR"
    },
    {
      "bufferView": 2,
      "byteOffset": 76464,
      "componentType": 5126,
      "count": 386,
      "max": [
        11.729204177856445,
        33.500003814697266,
        33.500003814697266
      ],
      "min": [
        -15.785442352294922,
        -33.500003814697266,
        -33.500003814697266
      ],
      "type": "VEC3"
    },
    {
      "bufferView": 2,
      "byteOffset": 81096,
      "componentType": 5126,
      "count": 386,
      "max": [
        1.0,
        1.0,
        0.9944637417793274
      ],
      "min": [
        -1.0,
        -1.0,
        -0.9944634437561035
      ],
      "type": "VEC3"
    },
    {
      "bufferView": 3,
      "byteOffset": 6176,
      "componentType": 5126,
      "count": 386,
      "max": [
        0.5565939545631409,
        0.9966200590133667,
        1.0,
        1.0
      ],
      "min": [
        -0.5565935969352722,
        -0.9966199398040771,
        -1.0,
        -1.0
      ],
      "type": "VEC4"
    },
    {
      "bufferView": 1,
      "byteOffset": 48616,
      "componentType": 5126,
      "count": 386,
      "max": [
        1.0,
        1.0
      ],
      "min": [
        0.0,
        0.003934845328330994
      ],
      "type": "VEC2"
    },
    {
      "bufferView": 1,
      "byteOffset": 51704,
      "componentType": 5126,
      "count": 386,
      "max": [
        0.0,
        0.0
      ],
      "min": [
        0.0,
        0.0
      ],
      "type": "VEC2"
    },
    {
      "bufferView": 0,
      "byteOffset": 28224,
      "componentType": 5125,
      "count": 1398,
      "type": "SCALAR"
    },
    {
      "bufferView": 2,
      "byteOffset": 85728,
      "componentType": 5126,
      "count": 213,
      "max": [
        4.40017557144165,
        14.830774307250977,
        14.830771446228027
      ],
      "min": [
        0.44678202271461487,
        -14.830778121948242,
        -14.830771446228027
      ],
      "type": "VEC3"
    },
    {
      "bufferView": 2,
      "byteOffset": 88284,
      "componentType": 5126,
      "count": 213,
      "max": [
        1.0,
        1.0,
        0.9944632649421692
      ],
      "min": [
        0.0,
        -1.0,
        -0.9944632649421692
      ],
      "type": "VEC3"
    },
    {
      "bufferView": 1,
      "byteOffset": 54792,
      "componentType": 5126,
      "count": 213,
      "max": [
        1.0,
        0.8600000143051147
      ],
      "min": [
        0.0,
        0.5862500071525574
      ],
      "type": "VEC2"
    },
    {
      "bufferView": 1,
      "byteOffset": 56496,
      "componentType": 5126,
      "count": 213,
      "max": [
        0.0,
        0.0
      ],
      "min": [
        0.0,
        0.0
      ],
      "type": "VEC2"
    },
    {
      "bufferView": 0,
      "byteOffset": 33816,
      "componentType": 5125,
      "count": 630,
      "type": "SCALAR"
    },
    {
      "bufferView": 2,
      "byteOffset": 90840,
      "componentType": 5126,
      "count": 1369,
      "max": [
        11.646162986755371,
        25.69161605834961,
        25.58654022216797
      ],
      "min": [
        -15.326377868652344,
        -25.691621780395508,
        -25.515138626098633
      ],
      "type": "VEC3"
    },
    {
      "bufferView": 2,
      "byteOffset": 107268,
      "componentType": 5126,
      "count": 1369,
      "max": [
        1.0,
        1.0,
        0.9988232851028442
      ],
      "min": [
        -4.478970367927104e-05,
        -1.0,
        -0.9988137483596802
      ],
      "type": "VEC3"
    },
    {
      "bufferView": 1,
      "byteOffset": 58200,
      "componentType": 5126,
      "count": 1369,
      "max": [
        0.0,
        0.0
      ],
      "min": [
        0.0,
        0.0
      ],
      "type": "VEC2"
    },
    {
      "bufferView": 1,
      "byteOffset": 69152,
      "componentType": 5126,
      "count": 1369,
      "max": [
        1.0,
        1.0
      ],
      "min": [
        0.0,
        0.0
      ],
      "type": "VEC2"
    },
    {
      "bufferView": 0,
      "byteOffset": 36336,
      "componentType": 5125,
      "count": 2322,
      "type": "SCALAR"
    },
    {
      "bufferView": 2,
      "byteOffset": 123696,
      "componentType": 5126,
      "count": 465,
      "max": [
        10.528322219848633,
        4.869114875793457,
        5.620441913604736
      ],
      "min": [
        6.830907821655273,
        -5.680392742156982,
        -5.262954235076904
      ],
      "type": "VEC3"
    },
    {
      "bufferView": 2,
      "byteOffset": 129276,
      "componentType": 5126,
      "count": 465,
      "max": [
        0.9791843295097351,
        0.9996510744094849,
        0.9992421269416809
      ],
      "min": [
        -3.518909579725005e-05,
        -0.9996821284294128,
        -0.9991773962974548
      ],
      "type": "VEC3"
    },
    {
      "bufferView": 1,
      "byteOffset": 80104,
      "componentType": 5126,
      "count": 465,
      "max": [
        0.0,
        0.0
      ],
      "min": [
        0.0,
        0.0
      ],
      "type": "VEC2"
    },
    {
      "bufferView": 1,
      "byteOffset": 83824,
      "componentType": 5126,
      "count": 465,
      "max": [
        1.0,
        1.0
      ],
      "min": [
        0.0,
        0.0
      ],
      "type": "VEC2"
    },
    {
      "bufferView": 0,
      "byteOffset": 45624,
      "componentType": 5125,
      "count": 810,
      "type": "SCALAR"
    },
    {
      "bufferView": 2,
      "byteOffset": 134856,
      "componentType": 5126,
      "count": 458,
      "max": [
        11.646162986755371,
        25.058454513549805,
        25.17304229736328
      ],
      "min": [
        6.5762176513671875,
        -25.06365966796875,
        -24.945409774780273
      ],
      "type": "VEC3"
    },
    {
      "bufferView": 2,
      "byteOffset": 140352,
      "componentType": 5126,
      "count": 458,
      "max": [
        1.0,
        0.5955474972724915,
        0.5881183743476868
      ],
      "min": [
        0.5548563599586487,
        -0.6253005266189575,
        -0.7864342927932739
      ],
      "type": "VEC3"
    },
    {
      "bufferView": 1,
      "byteOffset": 87544,
      "componentType": 5126,
      "count": 458,
      "max": [
        0.0,
        0.0
      ],
      "min": [
        0.0,
        0.0
      ],
      "type": "VEC2"
    },
    {
      "bufferView": 1,
      "byteOffset": 91208,
      "componentType": 5126,
      "count": 458,
      "max": [
        1.0,
        1.0
      ],
      "min": [
        0.0,
        0.0
      ],
      "type": "VEC2"
    },
    {
      "bufferView": 0,
      "byteOffset": 48864,
      "componentType": 5125,
      "count": 1074,
      "type": "SCALAR"
    },
    {
      "bufferView": 2,
      "byteOffset": 145848,
      "componentType": 5126,
      "count": 227,
      "max": [
        4.989067554473877,
        13.943741798400879,
        -12.883060455322266
      ],
      "min": [
        0.3119328022003174,
        -13.943632125854492,
        -21.58818817138672
      ],
      "type": "VEC3"
    },
    {
      "bufferView": 2,
      "byteOffset": 148572,
      "componentType": 5126,
      "count": 227,
      "max": [
        1.0,
        0.9995630383491516,
        1.0
      ],
      "min": [
        -1.0,
        -0.9995630383491516,
        -1.0
      ],
      "type": "VEC3"
    },
    {
      "bufferView": 1,
      "byteOffset": 94872,
      "componentType": 5126,
      "count": 227,
      "max": [
        0.534500002861023,
        0.544374942779541
      ],
      "min": [
        0.43549999594688416,
        0.2693749964237213
      ],
      "type": "VEC2"
    },
    {
      "bufferView": 0,
      "byteOffset": 53160,
      "componentType": 5125,
      "count": 642,
      "type": "SCALAR"
    },
    {
      "bufferView": 2,
      "byteOffset": 151296,
      "componentType": 5126,
      "count": 227,
      "max": [
        4.989067554473877,
        13.943741798400879,
        -12.883060455322266
      ],
      "min": [
        0.3119328022003174,
        -13.943632125854492,
        -21.58818817138672
      ],
      "type": "VEC3"
    },
    {
      "bufferView": 2,
      "byteOffset": 154020,
      "componentType": 5126,
      "count": 227,
      "max": [
        1.0,
        0.9995630383491516,
        1.0
      ],
      "min": [
        -1.0,
        -0.9995630383491516,
        -1.0
      ],
      "type": "VEC3"
    },
    {
      "bufferView": 1,
      "byteOffset": 96688,
      "componentType": 5126,
      "count": 227,
      "max": [
        0.534500002861023,
        0.544374942779541
      ],
      "min": [
        0.43549999594688416,
        0.2693749964237213
      ],
      "type": "VEC2"
    },
    {
      "bufferView": 0,
      "byteOffset": 55728,
      "componentType": 5125,
      "count": 642,
      "type": "SCALAR"
    },
    {
      "bufferView": 2,
      "byteOffset": 156744,
      "componentType": 5126,
      "count": 386,
      "max": [
        11.729204177856445,
        33.500003814697266,
        33.500003814697266
      ],
      "min": [
        -15.785442352294922,
        -33.500003814697266,
        -33.500003814697266
      ],
      "type": "VEC3"
    },
    {
      "bufferView": 2,
      "byteOffset": 161376,
      "componentType": 5126,
      "count": 386,
      "max": [
        1.0,
        1.0,
        0.9944637417793274
      ],
      "min": [
        -1.0,
        -1.0,
        -0.9944634437561035
      ],
      "type": "VEC3"
    },
    {
      "bufferView": 3,
      "byteOffset": 12352,
      "componentType": 5126,
      "count": 386,
      "max": [
        0.5565939545631409,
        0.9966200590133667,
        1.0,
        1.0
      ],
      "min": [
        -0.5565935969352722,
        -0.9966199398040771,
        -1.0,
        -1.0
      ],
      "type": "VEC4"
    },
    {
      "bufferView": 1,
      "byteOffset": 98504,
      "componentType": 5126,
      "count": 386,
      "max": [
        1.0,
        1.0
      ],
      "min": [
        0.0,
        0.003934845328330994
      ],
      "type": "VEC2"
    },
    {
      "bufferView": 1,
      "byteOffset": 101592,
      "componentType": 5126,
      "count": 386,
      "max": [
        0.0,
        0.0
      ],
      "min": [
        0.0,
        0.0
      ],
      "type": "VEC2"
    },
    {
      "bufferView": 0,
      "byteOffset": 58296,
      "componentType": 5125,
      "count": 1398,
      "type": "SCALAR"
    },
    {
      "bufferView": 2,
      "byteOffset": 166008,
      "componentType": 5126,
      "count": 213,
      "max": [
        4.40017557144165,
        14.830774307250977,
        14.830771446228027
      ],
      "min": [
        0.44678202271461487,
        -14.830778121948242,
        -14.830771446228027
      ],
      "type": "VEC3"
    },
    {
      "bufferView": 2,
      "byteOffset": 168564,
      "componentType": 5126,
      "count": 213,
      "max": [
        1.0,
        1.0,
        0.9944632649421692
      ],
      "min": [
        0.0,
        -1.0,
        -0.9944632649421692
      ],
      "type": "VEC3"
    },
    {
      "bufferView": 1,
      "byteOffset": 104680,
      "componentType": 5126,
      "count": 213,
      "max": [
        1.0,
        0.8600000143051147
      ],
      "min": [
        0.0,
        0.5862500071525574
      ],
      "type": "VEC2"
    },
    {
      "bufferView": 1,
      "byteOffset": 106384,
      "componentType": 5126,
      "count": 213,
      "max": [
        0.0,
        0.0
      ],
      "min": [
        0.0,
        0.0
      ],
      "type": "VEC2"
    },
    {
      "bufferView": 0,
      "byteOffset": 63888,
      "componentType": 5125,
      "count": 630,
      "type": "SCALAR"
    },
    {
      "bufferView": 2,
      "byteOffset": 171120,
      "componentType": 5126,
      "count": 1369,
      "max": [
        11.646162986755371,
        25.69161605834961,
        25.58654022216797
      ],
      "min": [
        -15.326377868652344,
        -25.691621780395508,
        -25.515138626098633
      ],
      "type": "VEC3"
    },
    {
      "bufferView": 2,
      "byteOffset": 187548,
      "componentType": 5126,
      "count": 1369,
      "max": [
        1.0,
        1.0,
        0.9988232851028442
      ],
      "min": [
        -4.478970367927104e-05,
        -1.0,
        -0.9988137483596802
      ],
      "type": "VEC3"
    },
    {
      "bufferView": 1,
      "byteOffset": 108088,
      "componentType": 5126,
      "count": 1369,
      "max": [
        0.0,
        0.0
      ],
      "min": [
        0.0,
        0.0
      ],
      "type": "VEC2"
    },
    {
      "bufferView": 1,
      "byteOffset": 119040,
      "componentType": 5126,
      "count": 1369,
      "max": [
        1.0,
        1.0
      ],
      "min": [
        0.0,
        0.0
      ],
      "type": "VEC2"
    },
    {
      "bufferView": 0,
      "byteOffset": 66408,
      "componentType": 5125,
      "count": 2322,
      "type": "SCALAR"
    },
    {
      "bufferView": 2,
      "byteOffset": 203976,
      "componentType": 5126,
      "count": 465,
      "max": [
        10.528322219848633,
        4.869114875793457,
        5.620441913604736
      ],
      "min": [
        6.830907821655273,
        -5.680392742156982,
        -5.262954235076904
      ],
      "type": "VEC3"
    },
    {
      "bufferView": 2,
      "byteOffset": 209556,
      "componentType": 5126,
      "count": 465,
      "max": [
        0.9791843295097351,
        0.9996510744094849,
        0.9992421269416809
      ],
      "min": [
        -3.518909579725005e-05,
        -0.9996821284294128,
        -0.9991773962974548
      ],
      "type": "VEC3"
    },
    {
      "bufferView": 1,
      "byteOffset": 129992,
      "componentType": 5126,
      "count": 465,
      "max": [
        0.0,
        0.0
      ],
      "min": [
        0.0,
        0.0
      ],
      "type": "VEC2"
    },
    {
      "bufferView": 1,
      "byteOffset": 133712,
      "componentType": 5126,
      "count": 465,
      "max": [
        1.0,
        1.0
      ],
      "min": [
        0.0,
        0.0
      ],
      "type": "VEC2"
    },
    {
      "bufferView": 0,
      "byteOffset": 75696,
      "componentType": 5125,
      "count": 810,
      "type": "SCALAR"
    },
    {
      "bufferView": 2,
      "byteOffset": 215136,
      "componentType": 5126,
      "count": 458,
      "max": [
        11.646162986755371,
        25.058454513549805,
        25.17304229736328
      ],
      "min": [
        6.5762176513671875,
        -25.06365966796875,
        -24.945409774780273
      ],
      "type": "VEC3"
    },
    {
      "bufferView": 2,
      "byteOffset": 220632,
      "componentType": 5126,
      "count": 458,
      "max": [
        1.0,
        0.5955474972724915,
        0.5881183743476868
      ],
      "min": [
        0.5548563599586487,
        -0.6253005266189575,
        -0.7864342927932739
      ],
      "type": "VEC3"
    },
    {
      "bufferView": 1,
      "byteOffset": 137432,
      "componentType": 5126,
      "count": 458,
      "max": [
        0.0,
        0.0
      ],
      "min": [
        0.0,
        0.0
      ],
      "type": "VEC2"
    },
    {
      "bufferView": 1,
      "byteOffset": 141096,
      "componentType": 5126,
      "count": 458,
      "max": [
        1.0,
        1.0
      ],
      "min": [
        0.0,
        0.0
      ],
      "type": "VEC2"
    },
    {
      "bufferView": 0,
      "byteOffset": 78936,
      "componentType": 5125,
      "count": 1074,
      "type": "SCALAR"
    },
    {
      "bufferView": 2,
      "byteOffset": 226128,
      "componentType": 5126,
      "count": 20,
      "max": [
        0.008447885513305664,
        -0.2751120328903198,
        0.030156761407852173
      ],
      "min": [
        -0.02227044105529785,
        -0.36562344431877136,
        -0.012351632118225098
      ],
      "type": "VEC3"
    },
    {
      "bufferView": 2,
      "byteOffset": 226368,
      "componentType": 5126,
      "count": 20,
      "max": [
        -0.8361137509346008,
        -0.14250968396663666,
        0.5297214984893799
      ],
      "min": [
        -0.8361137509346008,
        -0.14250968396663666,
        0.5297214984893799
      ],
      "type": "VEC3"
    },
    {
      "bufferView": 1,
      "byteOffset": 144760,
      "componentType": 5126,
      "count": 20,
      "max": [
        0.0,
        0.0
      ],
      "min": [
        0.0,
        0.0
      ],
      "type": "VEC2"
    },
    {
      "bufferView": 1,
      "byteOffset": 144920,
      "componentType": 5126,
      "count": 20,
      "max": [
        0.0,
        0.0
      ],
      "min": [
        0.0,
        0.0
      ],
      "type": "VEC2"
    },
    {
      "bufferView": 0,
      "byteOffset": 83232,
      "componentType": 5125,
      "count": 54,
      "type": "SCALAR"
    },
    {
      "bufferView": 2,
      "byteOffset": 226608,
      "componentType": 5126,
      "count": 264,
      "max": [
        16.6531925201416,
        45.64107894897461,
        2.365865707397461
      ],
      "min": [
        -16.6531925201416,
        -45.64107894897461,
        -2.365865707397461
      ],
      "type": "VEC3"
    },
    {
      "bufferView": 2,
      "byteOffset": 229776,
      "componentType": 5126,
      "count": 264,
      "max": [
        0.9622180461883545,
        0.797315239906311,
        0.821354866027832
      ],
      "min": [
        -0.9622195959091187,
        -0.9735246300697327,
        -0.9439449906349182
      ],
      "type": "VEC3"
    },
    {
      "bufferView": 1,
      "byteOffset": 145080,
      "componentType": 5126,
      "count": 264,
      "max": [
        0.9166667461395264,
        0.14826416969299316
      ],
      "min": [
        0.916666567325592,
        0.03333333507180214
      ],
      "type": "VEC2"
    },
    {
      "bufferView": 0,
      "byteOffset": 83448,
      "componentType": 5125,
      "count": 486,
      "type": "SCALAR"
    },
    {
      "bufferView": 2,
      "byteOffset": 232944,
      "componentType": 5126,
      "count": 4735,
      "max": [
        15.43545913696289,
        47.66411590576172,
        10.176494598388672
      ],
      "min": [
        -15.43545913696289,
        -47.04404067993164,
        -2.770157814025879
      ],
      "type": "VEC3"
    },
    {
      "bufferView": 2,
      "byteOffset": 289764,
      "componentType": 5126,
      "count": 4735,
      "max": [
        1.0,
        0.9631944894790649,
        0.9988783597946167
      ],
      "min": [
        -1.0,
        -0.9899758100509644,
        -0.999515950679779
      ],
      "type": "VEC3"
    },
    {
      "bufferView": 1,
      "byteOffset": 147192,
      "componentType": 5126,
      "count": 4735,
      "max": [
        0.9166667461395264,
        0.9193100929260254
      ],
      "min": [
        0.0,
        0.0
      ],
      "type": "VEC2"
    },
    {
      "bufferView": 1,
      "byteOffset": 185072,
      "componentType": 5126,
      "count": 4735,
      "max": [
        1.0,
        1.0
      ],
      "min": [
        0.0,
        0.0
      ],
      "type": "VEC2"
    },
    {
      "bufferView": 1,
      "byteOffset": 222952,
      "componentType": 5126,
      "count": 4735,
      "max": [
        0.0,
        0.0
      ],
      "min": [
        0.0,
        0.0
      ],
      "type": "VEC2"
    },
    {
      "bufferView": 0,
      "byteOffset": 85392,
      "componentType": 5125,
      "count": 10191,
      "type": "SCALAR"
    },
    {
      "bufferView": 2,
      "byteOffset": 346584,
      "componentType": 5126,
      "count": 526,
      "max": [
        16.21167755126953,
        5.4920654296875,
        0.6478824615478516
      ],
      "min": [
        -16.21167755126953,
        -5.4920654296875,
        -0.6478805541992188
      ],
      "type": "VEC3"
    },
    {
      "bufferView": 2,
      "byteOffset": 352896,
      "componentType": 5126,
      "count": 526,
      "max": [
        0.9994679093360901,
        0.5784896612167358,
        0.9999606013298035
      ],
      "min": [
        -0.9994679093360901,
        -0.9675368070602417,
        -1.0
      ],
      "type": "VEC3"
    },
    {
      "bufferView": 1,
      "byteOffset": 260832,
      "componentType": 5126,
      "count": 526,
      "max": [
        0.9045571684837341,
        0.7394411563873291
      ],
      "min": [
        0.04948533698916435,
        0.7074121236801147
      ],
      "type": "VEC2"
    },
    {
      "bufferView": 0,
      "byteOffset": 126156,
      "componentType": 5125,
      "count": 666,
      "type": "SCALAR"
    },
    {
      "bufferView": 2,
      "byteOffset": 359208,
      "componentType": 5126,
      "count": 492,
      "max": [
        16.07994842529297,
        3.0243797302246094,
        4.367382049560547
      ],
      "min": [
        -16.07994842529297,
        -3.0243797302246094,
        -4.367383003234863
      ],
      "type": "VEC3"
    },
    {
      "bufferView": 2,
      "byteOffset": 365112,
      "componentType": 5126,
      "count": 492,
      "max": [
        0.9238771796226501,
        0.8049970269203186,
        0.6864655017852783
      ],
      "min": [
        -0.9238752126693726,
        -0.8603039383888245,
        -0.9999234080314636
      ],
      "type": "VEC3"
    },
    {
      "bufferView": 1,
      "byteOffset": 265040,
      "componentType": 5126,
      "count": 492,
      "max": [
        0.8307936191558838,
        0.912222146987915
      ],
      "min": [
        0.04695240780711174,
        0.700459897518158
      ],
      "type": "VEC2"
    },
    {
      "bufferView": 0,
      "byteOffset": 128820,
      "componentType": 5125,
      "count": 606,
      "type": "SCALAR"
    },
    {
      "bufferView": 2,
      "byteOffset": 371016,
      "componentType": 5126,
      "count": 292,
      "max": [
        16.484996795654297,
        4.756313323974609,
        4.37899112701416
      ],
      "min": [
        -16.484996795654297,
        -6.401432037353516,
        1.4385347366333008
      ],
      "type": "VEC3"
    },
    {
      "bufferView": 2,
      "byteOffset": 374520,
      "componentType": 5126,
      "count": 292,
      "max": [
        0.8394924402236938,
        0.9339478611946106,
        0.6865087151527405
      ],
      "min": [
        -0.8402079343795776,
        0.1544768214225769,
        -0.11066656559705734
      ],
      "type": "VEC3"
    },
    {
      "bufferView": 1,
      "byteOffset": 268976,
      "componentType": 5126,
      "count": 292,
      "max": [
        0.7714729905128479,
        0.9686336517333984
      ],
      "min": [
        0.04237839952111244,
        0.9362234473228455
      ],
      "type": "VEC2"
    },
    {
      "bufferView": 0,
      "byteOffset": 131244,
      "componentType": 5125,
      "count": 360,
      "type": "SCALAR"
    },
    {
      "bufferView": 2,
      "byteOffset": 378024,
      "componentType": 5126,
      "count": 180,
      "max": [
        16.204837799072266,
        32.89448928833008,
        3.9214115142822266
      ],
      "min": [
        -16.204837799072266,
        -32.89448928833008,
        -3.9214134216308594
      ],
      "type": "VEC3"
    },
    {
      "bufferView": 2,
      "byteOffset": 380184,
      "componentType": 5126,
      "count": 180,
      "max": [
        0.9084693789482117,
        0.49015507102012634,
        0.890986979007721
      ],
      "min": [
        -0.9084694385528564,
        -0.5305342078208923,
        0.41737663745880127
      ],
      "type": "VEC3"
    },
    {
      "bufferView": 1,
      "byteOffset": 271312,
      "componentType": 5126,
      "count": 180,
      "max": [
        9.602092742919922,
        24.61105728149414
      ],
      "min": [
        -4.61650276184082,
        -23.356128692626953
      ],
      "type": "VEC2"
    },
    {
      "bufferView": 0,
      "byteOffset": 132684,
      "componentType": 5125,
      "count": 504,
      "type": "SCALAR"
    },
    {
      "bufferView": 2,
      "byteOffset": 382344,
      "componentType": 5126,
      "count": 11226,
      "max": [
        20.34929656982422,
        47.65102005004883,
        13.842960357666016
      ],
      "min": [
        -20.34929656982422,
        -47.65102005004883,
        -13.842961311340332
      ],
      "type": "VEC3"
    },
    {
      "bufferView": 2,
      "byteOffset": 517056,
      "componentType": 5126,
      "count": 11226,
      "max": [
        1.0,
        1.0,
        1.0
      ],
      "min": [
        -1.0,
        -1.0,
        -1.0
      ],
      "type": "VEC3"
    },
    {
      "bufferView": 1,
      "byteOffset": 272752,
      "componentType": 5126,
      "count": 11226,
      "max": [
        9.676525115966797,
        28.379592895507813
      ],
      "min": [
        -6.026288986206055,
        -23.356128692626953
      ],
      "type": "VEC2"
    },
    {
      "bufferView": 0,
      "byteOffset": 134700,
      "componentType": 5125,
      "count": 25695,
      "type": "SCALAR"
    },
    {
      "bufferView": 2,
      "byteOffset": 651768,
      "componentType": 5126,
      "count": 3495,
      "max": [
        20.3381290435791,
        47.6427001953125,
        9.124333381652832
      ],
      "min": [
        -20.3381290435791,
        -47.6427001953125,
        -9.124333381652832
      ],
      "type": "VEC3"
    },
    {
      "bufferView": 2,
      "byteOffset": 693708,
      "componentType": 5126,
      "count": 3495,
      "max": [
        0.9999426007270813,
        0.9997231960296631,
        0.9983906745910645
      ],
      "min": [
        -0.9999426007270813,
        -0.9990515112876892,
        -0.995562732219696
      ],
      "type": "VEC3"
    },
    {
      "bufferView": 1,
      "byteOffset": 362560,
      "componentType": 5126,
      "count": 3495,
      "max": [
        0.9877191185951233,
        0.8204531669616699
      ],
      "min": [
        0.0035577230155467987,
        0.020583003759384155
      ],
      "type": "VEC2"
    },
    {
      "bufferView": 0,
      "byteOffset": 237480,
      "componentType": 5125,
      "count": 13224,
      "type": "SCALAR"
    },
    {
      "bufferView": 2,
      "byteOffset": 735648,
      "componentType": 5126,
      "count": 38,
      "max": [
        16.548934936523438,
        41.37184143066406,
        1.1977205276489258
      ],
      "min": [
        -16.5489559173584,
        33.66621398925781,
        -1.221674919128418
      ],
      "type": "VEC3"
    },
    {
      "bufferView": 2,
      "byteOffset": 736104,
      "componentType": 5126,
      "count": 38,
      "max": [
        0.9606462121009827,
        0.6538192629814148,
        0.933747410774231
      ],
      "min": [
        -0.9606460928916931,
        0.1775752305984497,
        0.005085587967187166
      ],
      "type": "VEC3"
    },
    {
      "bufferView": 1,
      "byteOffset": 390520,
      "componentType": 5126,
      "count": 38,
      "max": [
        0.9482056498527527,
        0.6840357184410095
      ],
      "min": [
        0.04086514562368393,
        0.17909473180770874
      ],
      "type": "VEC2"
    },
    {
      "bufferView": 0,
      "byteOffset": 290376,
      "componentType": 5125,
      "count": 78,
      "type": "SCALAR"
    },
    {
      "bufferView": 2,
      "byteOffset": 736560,
      "componentType": 5126,
      "count": 227,
      "max": [
        4.989067554473877,
        13.943741798400879,
        -12.883060455322266
      ],
      "min": [
        0.3119328022003174,
        -13.943632125854492,
        -21.58818817138672
      ],
      "type": "VEC3"
    },
    {
      "bufferView": 2,
      "byteOffset": 739284,
      "componentType": 5126,
      "count": 227,
      "max": [
        1.0,
        0.9995630383491516,
        1.0
      ],
      "min": [
        -1.0,
        -0.9995630383491516,
        -1.0
      ],
      "type": "VEC3"
    },
    {
      "bufferView": 1,
      "byteOffset": 390824,
      "componentType": 5126,
      "count": 227,
      "max": [
        0.534500002861023,
        0.544374942779541
      ],
      "min": [
        0.43549999594688416,
        0.2693749964237213
      ],
      "type": "VEC2"
    },
    {
      "bufferView": 0,
      "byteOffset": 290688,
      "componentType": 5125,
      "count": 642,
      "type": "SCALAR"
    },
    {
      "bufferView": 2,
      "byteOffset": 742008,
      "componentType": 5126,
      "count": 386,
      "max": [
        11.729204177856445,
        33.500003814697266,
        33.500003814697266
      ],
      "min": [
        -15.785442352294922,
        -33.500003814697266,
        -33.500003814697266
      ],
      "type": "VEC3"
    },
    {
      "bufferView": 2,
      "byteOffset": 746640,
      "componentType": 5126,
      "count": 386,
      "max": [
        1.0,
        1.0,
        0.9944637417793274
      ],
      "min": [
        -1.0,
        -1.0,
        -0.9944634437561035
      ],
      "type": "VEC3"
    },
    {
      "bufferView": 3,
      "byteOffset": 18528,
      "componentType": 5126,
      "count": 386,
      "max": [
        0.5565939545631409,
        0.9966200590133667,
        1.0,
        1.0
      ],
      "min": [
        -0.5565935969352722,
        -0.9966199398040771,
        -1.0,
        -1.0
      ],
      "type": "VEC4"
    },
    {
      "bufferView": 1,
      "byteOffset": 392640,
      "componentType": 5126,
      "count": 386,
      "max": [
        1.0,
        1.0
      ],
      "min": [
        0.0,
        0.003934845328330994
      ],
      "type": "VEC2"
    },
    {
      "bufferView": 1,
      "byteOffset": 395728,
      "componentType": 5126,
      "count": 386,
      "max": [
        0.0,
        0.0
      ],
      "min": [
        0.0,
        0.0
      ],
      "type": "VEC2"
    },
    {
      "bufferView": 0,
      "byteOffset": 293256,
      "componentType": 5125,
      "count": 1398,
      "type": "SCALAR"
    },
    {
      "bufferView": 2,
      "byteOffset": 751272,
      "componentType": 5126,
      "count": 213,
      "max": [
        4.40017557144165,
        14.830774307250977,
        14.830771446228027
      ],
      "min": [
        0.44678202271461487,
        -14.830778121948242,
        -14.830771446228027
      ],
      "type": "VEC3"
    },
    {
      "bufferView": 2,
      "byteOffset": 753828,
      "componentType": 5126,
      "count": 213,
      "max": [
        1.0,
        1.0,
        0.9944632649421692
      ],
      "min": [
        0.0,
        -1.0,
        -0.9944632649421692
      ],
      "type": "VEC3"
    },
    {
      "bufferView": 1,
      "byteOffset": 398816,
      "componentType": 5126,
      "count": 213,
      "max": [
        1.0,
        0.8600000143051147
      ],
      "min": [
        0.0,
        0.5862500071525574
      ],
      "type": "VEC2"
    },
    {
      "bufferView": 1,
      "byteOffset": 400520,
      "componentType": 5126,
      "count": 213,
      "max": [
        0.0,
        0.0
      ],
      "min": [
        0.0,
        0.0
      ],
      "type": "VEC2"
    },
    {
      "bufferView": 0,
      "byteOffset": 298848,
      "componentType": 5125,
      "count": 630,
      "type": "SCALAR"
    },
    {
      "bufferView": 2,
      "byteOffset": 756384,
      "componentType": 5126,
      "count": 1369,
      "max": [
        11.646162986755371,
        25.69161605834961,
        25.58654022216797
      ],
      "min": [
        -15.326377868652344,
        -25.691621780395508,
        -25.515138626098633
      ],
      "type": "VEC3"
    },
    {
      "bufferView": 2,
      "byteOffset": 772812,
      "componentType": 5126,
      "count": 1369,
      "max": [
        1.0,
        1.0,
        0.9988232851028442
      ],
      "min": [
        -4.478970367927104e-05,
        -1.0,
        -0.9988137483596802
      ],
      "type": "VEC3"
    },
    {
      "bufferView": 1,
      "byteOffset": 402224,
      "componentType": 5126,
      "count": 1369,
      "max": [
        0.0,
        0.0
      ],
      "min": [
        0.0,
        0.0
      ],
      "type": "VEC2"
    },
    {
      "bufferView": 1,
      "byteOffset": 413176,
      "componentType": 5126,
      "count": 1369,
      "max": [
        1.0,
        1.0
      ],
      "min": [
        0.0,
        0.0
      ],
      "type": "VEC2"
    },
    {
      "bufferView": 0,
      "byteOffset": 301368,
      "componentType": 5125,
      "count": 2322,
      "type": "SCALAR"
    },
    {
      "bufferView": 2,
      "byteOffset": 789240,
      "componentType": 5126,
      "count": 465,
      "max": [
        10.528322219848633,
        4.869114875793457,
        5.620441913604736
      ],
      "min": [
        6.830907821655273,
        -5.680392742156982,
        -5.262954235076904
      ],
      "type": "VEC3"
    },
    {
      "bufferView": 2,
      "byteOffset": 794820,
      "componentType": 5126,
      "count": 465,
      "max": [
        0.9791843295097351,
        0.9996510744094849,
        0.9992421269416809
      ],
      "min": [
        -3.518909579725005e-05,
        -0.9996821284294128,
        -0.9991773962974548
      ],
      "type": "VEC3"
    },
    {
      "bufferView": 1,
      "byteOffset": 424128,
      "componentType": 5126,
      "count": 465,
      "max": [
        0.0,
        0.0
      ],
      "min": [
        0.0,
        0.0
      ],
      "type": "VEC2"
    },
    {
      "bufferView": 1,
      "byteOffset": 427848,
      "componentType": 5126,
      "count": 465,
      "max": [
        1.0,
        1.0
      ],
      "min": [
        0.0,
        0.0
      ],
      "type": "VEC2"
    },
    {
      "bufferView": 0,
      "byteOffset": 310656,
      "componentType": 5125,
      "count": 810,
      "type": "SCALAR"
    },
    {
      "bufferView": 2,
      "byteOffset": 800400,
      "componentType": 5126,
      "count": 458,
      "max": [
        11.646162986755371,
        25.058454513549805,
        25.17304229736328
      ],
      "min": [
        6.5762176513671875,
        -25.06365966796875,
        -24.945409774780273
      ],
      "type": "VEC3"
    },
    {
      "bufferView": 2,
      "byteOffset": 805896,
      "componentType": 5126,
      "count": 458,
      "max": [
        1.0,
        0.5955474972724915,
        0.5881183743476868
      ],
      "min": [
        0.5548563599586487,
        -0.6253005266189575,
        -0.7864342927932739
      ],
      "type": "VEC3"
    },
    {
      "bufferView": 1,
      "byteOffset": 431568,
      "componentType": 5126,
      "count": 458,
      "max": [
        0.0,
        0.0
      ],
      "min": [
        0.0,
        0.0
      ],
      "type": "VEC2"
    },
    {
      "bufferView": 1,
      "byteOffset": 435232,
      "componentType": 5126,
      "count": 458,
      "max": [
        1.0,
        1.0
      ],
      "min": [
        0.0,
        0.0
      ],
      "type": "VEC2"
    },
    {
      "bufferView": 0,
      "byteOffset": 313896,
      "componentType": 5125,
      "count": 1074,
      "type": "SCALAR"
    },
    {
      "bufferView": 2,
      "byteOffset": 811392,
      "componentType": 5126,
      "count": 210,
      "max": [
        15.0160551071167,
        33.255558013916016,
        17.329336166381836
      ],
      "min": [
        -15.016054153442383,
        -56.44058609008789,
        12.916461944580078
      ],
      "type": "VEC3"
    },
    {
      "bufferView": 2,
      "byteOffset": 813912,
      "componentType": 5126,
      "count": 210,
      "max": [
        0.9249733090400696,
        0.9831518530845642,
        0.9832001328468323
      ],
      "min": [
        -0.9249738454818726,
        -0.934605062007904,
        -0.9774128794670105
      ],
      "type": "VEC3"
    },
    {
      "bufferView": 1,
      "byteOffset": 438896,
      "componentType": 5126,
      "count": 210,
      "max": [
        0.940800130367279,
        0.9077471494674683
      ],
      "min": [
        0.4811690151691437,
        0.18189460039138794
      ],
      "type": "VEC2"
    },
    {
      "bufferView": 0,
      "byteOffset": 318192,
      "componentType": 5125,
      "count": 264,
      "type": "SCALAR"
    }
  ],
  "asset": {
    "extras": {
      "author": "iSteven (https://sketchfab.com/Steven007)",
      "license": "CC-BY-NC-4.0 (http://creativecommons.org/licenses/by-nc/4.0/)",
      "source": "https://sketchfab.com/3d-models/range-rover-velar-b8acd220039c4450a3a06eabe541df5e",
      "title": "Range Rover Velar"
    },
    "generator": "Sketchfab-12.65.0",
    "version": "2.0"
  },
  "bufferViews": [
    {
      "buffer": 0,
      "byteLength": 319248,
      "name": "floatBufferViews",
      "target": 34963
    },
    {
      "buffer": 0,
      "byteLength": 440576,
      "byteOffset": 319248,
      "byteStride": 8,
      "name": "floatBufferViews",
      "target": 34962
    },
    {
      "buffer": 0,
      "byteLength": 816432,
      "byteOffset": 759824,
      "byteStride": 12,
      "name": "floatBufferViews",
      "target": 34962
    },
    {
      "buffer": 0,
      "byteLength": 24704,
      "byteOffset": 1576256,
      "byteStride": 16,
      "name": "floatBufferViews",
      "target": 34962
    }
  ],
  "buffers": [
    {
      "byteLength": 1600960,
      "uri": "scene.bin"
    }
  ],
  "extensionsUsed": [
    "KHR_materials_clearcoat"
  ],
  "images": [
    {
      "uri": "textures/Material.017_baseColor.png"
    },
    {
      "uri": "textures/Material.017_normal.png"
    }
  ],
  "materials": [
    {
      "doubleSided": true,
      "name": "refl",
      "pbrMetallicRoughness": {
        "baseColorFactor": [
          0.8,
          0.8,
          0.8,
          1.0
        ],
        "roughnessFactor": 0.0
      }
    },
    {
      "doubleSided": true,
      "name": "Material.017",
      "normalTexture": {
        "index": 1
      },
      "pbrMetallicRoughness": {
        "baseColorTexture": {
          "index": 0
        },
        "metallicFactor": 0.5383003048780488,
        "roughnessFactor": 0.8239417257461427
      }
    },
    {
      "doubleSided": true,
      "name": "Material.016",
      "pbrMetallicRoughness": {
        "baseColorTexture": {
          "index": 0
        },
        "metallicFactor": 0.0,
        "roughnessFactor": 0.8239417257461427
      }
    },
    {
      "doubleSided": true,
      "extensions": {
        "KHR_materials_clearcoat": {
          "clearcoatFactor": 1.0,
          "clearcoatRoughnessFactor": 0.04
        }
      },
      "name": "Material.015",
      "pbrMetallicRoughness": {
        "baseColorFactor": [
          0.0835314,
          0.0835314,
          0.0835314,
          1.0
        ],
        "roughnessFactor": 0.4738948170731707
      }
    },
    {
      "doubleSided": true,
      "name": "Material.014",
      "pbrMetallicRoughness": {
        "baseColorFactor": [
          0.8,
          0.8,
          0.8,
          1.0
        ],
        "roughnessFactor": 0.0
      }
    },
    {
      "doubleSided": true,
      "extensions": {
        "KHR_materials_clearcoat": {
          "clearcoatFactor": 1.0,
          "clearcoatRoughnessFactor": 0.04
        }
      },
      "name": "Material.013",
      "pbrMetallicRoughness": {
        "roughnessFactor": 0.4129192073170732
      }
    },
    {
      "doubleSided": true,
      "name": "Material.018",
      "pbrMetallicRoughness": {
        "baseColorTexture": {
          "index": 0
        },
        "metallicFactor": 0.0,
        "roughnessFactor": 0.8239417257461427
      }
    },
    {
      "doubleSided": true,
      "name": "Material.009",
      "pbrMetallicRoughness": {
        "baseColorFactor": [
          0.0006849502726102269,
          1.0,
          0.0,
          1.0
        ],
        "roughnessFactor": 0.3214557926829268
      }
    },
    {
      "alphaMode": "BLEND",
      "doubleSided": true,
      "name": "Material.004",
      "pbrMetallicRoughness": {
        "baseColorFactor": [
          0.0,
          0.0,
          0.0,
          0.4224466463414634
        ],
        "metallicFactor": 0.0,
        "roughnessFactor": 0.0
      }
    },
    {
      "doubleSided": true,
      "name": "material",
      "pbrMetallicRoughness": {
        "baseColorFactor": [
          0.6358612804878049,
          0.6358612804878049,
          0.6358612804878049,
          1.0
        ],
        "roughnessFactor": 0.3397484756097561
      }
    },
    {
      "doubleSided": true,
      "emissiveFactor": [
        1.0,
        0.0,
        0.0
      ],
      "name": "Material.005",
      "pbrMetallicRoughness": {
        "baseColorFactor": [
          0.7999999999999999,
          0.0,
          0.01231479999999995,
          1.0
        ],
        "metallicFactor": 0.0,
        "roughnessFactor": 0.8239417257461427
      }
    },
    {
      "doubleSided": true,
      "name": "material_11",
      "pbrMetallicRoughness": {
        "baseColorFactor": [
          0.7999999999999999,
          0.0,
          0.007351199999999994,
          1.0
        ],
        "roughnessFactor": 0.4738948170731707
      }
    },
    {
      "doubleSided": true,
      "emissiveFactor": [
        1.0,
        1.0,
        1.0
      ],
      "name": "Material.006",
      "pbrMetallicRoughness": {
        "baseColorFactor": [
          0.8,
          0.8,
          0.8,
          1.0
        ],
        "metallicFactor": 0.0,
        "roughnessFactor": 0.8239417257461427
      }
    },
    {
      "alphaMode": "BLEND",
      "doubleSided": true,
      "name": "Material.002",
      "pbrMetallicRoughness": {
        "baseColorFactor": [
          0.0,
          0.0,
          0.0,
          0.782202743902439
        ],
        "metallicFactor": 0.0,
        "roughnessFactor": 0.0
      }
    },
    {
      "doubleSided": true,
      "name": "Material.003",
      "pbrMetallicRoughness": {
        "baseColorFactor": [
          0.00901817,
          0.00901817,
          0.00901817,
          1.0
        ],
        "metallicFactor": 0.0,
        "roughnessFactor": 0.0
      }
    },
    {
      "doubleSided": true,
      "name": "Material.001",
      "pbrMetallicRoughness": {
        "metallicFactor": 0.5931783536585366,
        "roughnessFactor": 0.0
      }
    },
    {
      "doubleSided": true,
      "name": "Material.007",
      "pbrMetallicRoughness": {
        "baseColorFactor": [
          0.8,
          0.8,
          0.8,
          1.0
        ],
        "metallicFactor": 0.0,
        "roughnessFactor": 0.8239417257461427
      }
    }
  ],
  "meshes": [
    {
      "name": "object.010_refl_0",
      "primitives": [
        {
          "attributes": {
            "NORMAL": 1,
            "POSITION": 0,
            "TEXCOORD_0": 2
          },
          "indices": 3,
          "material": 0,
          "mode": 4
        }
      ]
    },
    {
      "name": "wheel.003_Material.017_0",
      "primitives": [
        {
          "attributes": {
            "NORMAL": 5,
            "POSITION": 4,
            "TANGENT": 6,
            "TEXCOORD_0": 7,
            "TEXCOORD_1": 8
          },
          "indices": 9,
          "material": 1,
          "mode": 4
        }
      ]
    },
    {
      "name": "wheel.003_Material.016_0",
      "primitives": [
        {
          "attributes": {
            "NORMAL": 11,
            "POSITION": 10,
            "TEXCOORD_0": 12,
            "TEXCOORD_1": 13
          },
          "indices": 14,
          "material": 2,
          "mode": 4
        }
      ]
    },
    {
      "name": "wheel.003_Material.015_0",
      "primitives": [
        {
          "attributes": {
            "NORMAL": 16,
            "POSITION": 15,
            "TEXCOORD_0": 17,
            "TEXCOORD_1": 18
          },
          "indices": 19,
          "material": 3,
          "mode": 4
        }
      ]
    },
    {
      "name": "wheel.003_Material.014_0",
      "primitives": [
        {
          "attributes": {
            "NORMAL": 21,
            "POSITION": 20,
            "TEXCOORD_0": 22,
            "TEXCOORD_1": 23
          },
          "indices": 24,
          "material": 4,
          "mode": 4
        }
      ]
    },
    {
      "name": "wheel.003_Material.013_0",
      "primitives": [
        {
          "attributes": {
            "NORMAL": 26,
            "POSITION": 25,
            "TEXCOORD_0": 27,
            "TEXCOORD_1": 28
          },
          "indices": 29,
          "material": 5,
          "mode": 4
        }
      ]
    },
    {
      "name": "cal.003_Material.018_0",
      "primitives": [
        {
          "attributes": {
            "NORMAL": 31,
            "POSITION": 30,
            "TEXCOORD_0": 32
          },
          "indices": 33,
          "material": 6,
          "mode": 4
        }
      ]
    },
    {
      "name": "wheel.002_Material.017_0",
      "primitives": [
        {
          "attributes": {
            "NORMAL": 35,
            "POSITION": 34,
            "TANGENT": 36,
            "TEXCOORD_0": 37,
            "TEXCOORD_1": 38
          },
          "indices": 39,
          "material": 1,
          "mode": 4
        }
      ]
    },
    {
      "name": "wheel.002_Material.016_0",
      "primitives": [
        {
          "attributes": {
            "NORMAL": 41,
            "POSITION": 40,
            "TEXCOORD_0": 42,
            "TEXCOORD_1": 43
          },
          "indices": 44,
          "material": 2,
          "mode": 4
        }
      ]
    },
    {
      "name": "wheel.002_Material.015_0",
      "primitives": [
        {
          "attributes": {
            "NORMAL": 46,
            "POSITION": 45,
            "TEXCOORD_0": 47,
            "TEXCOORD_1": 48
          },
          "indices": 49,
          "material": 3,
          "mode": 4
        }
      ]
    },
    {
      "name": "wheel.002_Material.014_0",
      "primitives": [
        {
          "attributes": {
            "NORMAL": 51,
            "POSITION": 50,
            "TEXCOORD_0": 52,
            "TEXCOORD_1": 53
          },
          "indices": 54,
          "material": 4,
          "mode": 4
        }
      ]
    },
    {
      "name": "wheel.002_Material.013_0",
      "primitives": [
        {
          "attributes": {
            "NORMAL": 56,
            "POSITION": 55,
            "TEXCOORD_0": 57,
            "TEXCOORD_1": 58
          },
          "indices": 59,
          "material": 5,
          "mode": 4
        }
      ]
    },
    {
      "name": "cal.002_Material.018_0",
      "primitives": [
        {
          "attributes": {
            "NORMAL": 61,
            "POSITION": 60,
            "TEXCOORD_0": 62
          },
          "indices": 63,
          "material": 6,
          "mode": 4
        }
      ]
    },
    {
      "name": "cal.001_Material.018_0",
      "primitives": [
        {
          "attributes": {
            "NORMAL": 65,
            "POSITION": 64,
            "TEXCOORD_0": 66
          },
          "indices": 67,
          "material": 6,
          "mode": 4
        }
      ]
    },
    {
      "name": "wheel.001_Material.017_0",
      "primitives": [
        {
          "attributes": {
            "NORMAL": 69,
            "POSITION": 68,
            "TANGENT": 70,
            "TEXCOORD_0": 71,
            "TEXCOORD_1": 72
          },
          "indices": 73,
          "material": 1,
          "mode": 4
        }
      ]
    },
    {
      "name": "wheel.001_Material.016_0",
      "primitives": [
        {
          "attributes": {
            "NORMAL": 75,
            "POSITION": 74,
            "TEXCOORD_0": 76,
            "TEXCOORD_1": 77
          },
          "indices": 78,
          "material": 2,
          "mode": 4
        }
      ]
    },
    {
      "name": "wheel.001_Material.015_0",
      "primitives": [
        {
          "attributes": {
            "NORMAL": 80,
            "POSITION": 79,
            "TEXCOORD_0": 81,
            "TEXCOORD_1": 82
          },
          "indices": 83,
          "material": 3,
          "mode": 4
        }
      ]
    },
    {
      "name": "wheel.001_Material.014_0",
      "primitives": [
        {
          "attributes": {
            "NORMAL": 85,
            "POSITION": 84,
            "TEXCOORD_0": 86,
            "TEXCOORD_1": 87
          },
          "indices": 88,
          "material": 4,
          "mode": 4
        }
      ]
    },
    {
      "name": "wheel.001_Material.013_0",
      "primitives": [
        {
          "attributes": {
            "NORMAL": 90,
            "POSITION": 89,
            "TEXCOORD_0": 91,
            "TEXCOORD_1": 92
          },
          "indices": 93,
          "material": 5,
          "mode": 4
        }
      ]
    },
    {
      "name": "object.002_Material.009_0",
      "primitives": [
        {
          "attributes": {
            "NORMAL": 95,
            "POSITION": 94,
            "TEXCOORD_0": 96,
            "TEXCOORD_1": 97
          },
          "indices": 98,
          "material": 7,
          "mode": 4
        }
      ]
    },
    {
      "name": "object.009_Material.004_0",
      "primitives": [
        {
          "attributes": {
            "NORMAL": 100,
            "POSITION": 99,
            "TEXCOORD_0": 101
          },
          "indices": 102,
          "material": 8,
          "mode": 4
        }
      ]
    },
    {
      "name": "object.008_chr_0",
      "primitives": [
        {
          "attributes": {
            "NORMAL": 104,
            "POSITION": 103,
            "TEXCOORD_0": 105,
            "TEXCOORD_1": 106,
            "TEXCOORD_2": 107
          },
          "indices": 108,
          "material": 9,
          "mode": 4
        }
      ]
    },
    {
      "name": "object.007_Material.005_0",
      "primitives": [
        {
          "attributes": {
            "NORMAL": 110,
            "POSITION": 109,
            "TEXCOORD_0": 111
          },
          "indices": 112,
          "material": 10,
          "mode": 4
        }
      ]
    },
    {
      "name": "object.005_red_0",
      "primitives": [
        {
          "attributes": {
            "NORMAL": 114,
            "POSITION": 113,
            "TEXCOORD_0": 115
          },
          "indices": 116,
          "material": 11,
          "mode": 4
        }
      ]
    },
    {
      "name": "object.004_Material.006_0",
      "primitives": [
        {
          "attributes": {
            "NORMAL": 118,
            "POSITION": 117,
            "TEXCOORD_0": 119
          },
          "indices": 120,
          "material": 12,
          "mode": 4
        }
      ]
    },
    {
      "name": "object.003_Material.002_0",
      "primitives": [
        {
          "attributes": {
            "NORMAL": 122,
            "POSITION": 121,
            "TEXCOORD_0": 123
          },
          "indices": 124,
          "material": 13,
          "mode": 4
        }
      ]
    },
    {
      "name": "object.001_Material.003_0",
      "primitives": [
        {
          "attributes": {
            "NORMAL": 126,
            "POSITION": 125,
            "TEXCOORD_0": 127
          },
          "indices": 128,
          "material": 14,
          "mode": 4
        }
      ]
    },
    {
      "name": "object.000_Material.001_0",
      "primitives": [
        {
          "attributes": {
            "NORMAL": 130,
            "POSITION": 129,
            "TEXCOORD_0": 131
          },
          "indices": 132,
          "material": 15,
          "mode": 4
        }
      ]
    },
    {
      "name": "object.006_Material.007_0",
      "primitives": [
        {
          "attributes": {
            "NORMAL": 134,
            "POSITION": 133,
            "TEXCOORD_0": 135
          },
          "indices": 136,
          "material": 16,
          "mode": 4
        }
      ]
    },
    {
      "name": "cal_Material.018_0",
      "primitives": [
        {
          "attributes": {
            "NORMAL": 138,
            "POSITION": 137,
            "TEXCOORD_0": 139
          },
          "indices": 140,
          "material": 6,
          "mode": 4
        }
      ]
    },
    {
      "name": "wheel_Material.017_0",
      "primitives": [
        {
          "attributes": {
            "NORMAL": 142,
            "POSITION": 141,
            "TANGENT": 143,
            "TEXCOORD_0": 144,
            "TEXCOORD_1": 145
          },
          "indices": 146,
          "material": 1,
          "mode": 4
        }
      ]
    },
    {
      "name": "wheel_Material.016_0",
      "primitives": [
        {
          "attributes": {
            "NORMAL": 148,
            "POSITION": 147,
            "TEXCOORD_0": 149,
            "TEXCOORD_1": 150
          },
          "indices": 151,
          "material": 2,
          "mode": 4
        }
      ]
    },
    {
      "name": "wheel_Material.015_0",
      "primitives": [
        {
          "attributes": {
            "NORMAL": 153,
            "POSITION": 152,
            "TEXCOORD_0": 154,
            "TEXCOORD_1": 155
          },
          "indices": 156,
          "material": 3,
          "mode": 4
        }
      ]
    },
    {
      "name": "wheel_Material.014_0",
      "primitives": [
        {
          "attributes": {
            "NORMAL": 158,
            "POSITION": 157,
            "TEXCOORD_0": 159,
            "TEXCOORD_1": 160
          },
          "indices": 161,
          "material": 4,
          "mode": 4
        }
      ]
    },
    {
      "name": "wheel_Material.013_0",
      "primitives": [
        {
          "attributes": {
            "NORMAL": 163,
            "POSITION": 162,
            "TEXCOORD_0": 164,
            "TEXCOORD_1": 165
          },
          "indices": 166,
          "material": 5,
          "mode": 4
        }
      ]
    },
    {
      "name": "f_lights_refl_0",
      "primitives": [
        {
          "attributes": {
            "NORMAL": 168,
            "POSITION": 167,
            "TEXCOORD_0": 169
          },
          "indices": 170,
          "material": 0,
          "mode": 4
        }
      ]
    }
  ],
  "nodes": [
    {
      "children": [
        1
      ],
      "matrix": [
        0.009067576378583908,
        0.0,
        0.0,
        0.0,
        0.0,
        2.01340641461021e-18,
        -0.009067576378583908,
        0.0,
        0.0,
        0.009067576378583908,
        2.01340641461021e-18,
        0.0,
        0.0,
        0.0,
        0.0,
        1.0
      ],
      "name": "Sketchfab_model"
    },
    {
      "children": [
        2
      ],
      "matrix": [
        1.0,
        0.0,
        0.0,
        0.0,
        0.0,
        0.0,
        1.0,
        0.0,
        0.0,
        -1.0,
        0.0,
        0.0,
        0.0,
        0.0,
        0.0,
        1.0
      ],
      "name": "Range Rover Velar.fbx"
    },
    {
      "children": [
        3,
        5,
        11,
        13,
        19,
        21,
        23,
        29,
        31,
        33,
        35,
        37,
        39,
        41,
        43,
        45,
        47,
        49,
        51,
        57
      ],
      "name": "RootNode"
    },
    {
      "children": [
        4
      ],
      "matrix": [
        -6.4642181396478735,
        -9.76069806504392e-07,
        -2.5172594845257263e-06,
        0.0,
        -2.5172595582169104e-06,
        4.880345138779848e-07,
        6.464218139647929,
        0.0,
        -9.76069616456659e-07,
        6.464218139648345,
        -4.88034894244347e-07,
        0.0,
        -0.5771026015281677,
        79.50198364257813,
        -46.6613883972168,
        1.0
      ],
      "name": "object.010"
    },
    {
      "mesh": 0,
      "name": "object.010_refl_0"
    },
    {
      "children": [
        6,
        7,
        8,
        9,
        10
      ],
      "matrix": [
        1.536321997642517,
        0.0,
        0.0,
        0.0,
        0.0,
        -2.502986236205345e-07,
        -1.5363219976424969,
        0.0,
        0.0,
        1.5363219976424969,
        -2.502986236205345e-07,
        0.0,
        101.19338989257813,
        7.4513702392578125,
        -214.12966918945313,
        1.0
      ],
      "name": "wheel.003"
    },
    {
      "mesh": 1,
      "name": "wheel.003_Material.017_0"
    },
    {
      "mesh": 2,
      "name": "wheel.003_Material.016_0"
    },
    {
      "mesh": 3,
      "name": "wheel.003_Material.015_0"
    },
    {
      "mesh": 4,
      "name": "wheel.003_Material.014_0"
    },
    {
      "mesh": 5,
      "name": "wheel.003_Material.013_0"
    },
    {
      "children": [
        12
      ],
      "matrix": [
        1.2114441394805908,
        -2.676021085898318e-16,
        -2.96330372187769e-16,
        0.0,
        2.9633038109772155e-16,
        1.2051726224860275,
        0.12310911051591555,
        0.0,
        2.676020987233564e-16,
        -0.12310911051591555,
        1.2051726224860275,
        0.0,
        101.1933822631836,
        7.4513702392578125,
        -214.12921142578125,
        1.0
      ],
      "name": "cal.003"
    },
    {
      "mesh": 6,
      "name": "cal.003_Material.018_0"
    },
    {
      "children": [
        14,
        15,
        16,
        17,
        18
      ],
      "matrix": [
        -1.536321997642505,
        1.3430953970881052e-07,
        1.3430955657726645e-07,
        0.0,
        1.343095304262305e-07,
        -2.991329485351623e-07,
        1.536321997642482,
        0.0,
        1.3430956585984466e-07,
        1.536321997642482,
        2.9913293710723995e-07,
        0.0,
        -101.19300079345703,
        7.4513702392578125,
        -214.12966918945313,
        1.0
      ],
      "name": "wheel.002"
    },
    {
      "mesh": 7,
      "name": "wheel.002_Material.017_0"
    },
    {
      "mesh": 8,
      "name": "wheel.002_Material.016_0"
    },
    {
      "mesh": 9,
      "name": "wheel.002_Material.015_0"
    },
    {
      "mesh": 10,
      "name": "wheel.002_Material.014_0"
    },
    {
      "mesh": 11,
      "name": "wheel.002_Material.013_0"
    },
    {
      "children": [
        20
      ],
      "matrix": [
        -1.2113999128341675,
        2.6759282012142745e-16,
        2.9631910502667796e-16,
        -0.0,
        2.963303639207526e-16,
        1.205172829535015,
        0.12310708359974841,
        -0.0,
        2.6760210161685953e-16,
        -0.12310708359974841,
        1.205172829535015,
        -0.0,
        -101.19297790527344,
        7.4513702392578125,
        -214.12921142578125,
        1.0
      ],
      "name": "cal.002"
    },
    {
      "mesh": 12,
      "name": "cal.002_Material.018_0"
    },
    {
      "children": [
        22
      ],
      "matrix": [
        -1.1521098910424754,
        6.6281909053872895e-09,
        -0.374343206959849,
        -0.0,
        -0.1378727277955947,
        -1.1262918183249147,
        0.4243285919973206,
        -0.0,
        0.3480433195305812,
        -0.4461654884190694,
        -1.0711671707795083,
        -0.0,
        -101.19306945800781,
        8.854574203491211,
        155.70843505859375,
        1.0
      ],
      "name": "cal.001"
    },
    {
      "mesh": 13,
      "name": "cal.001_Material.018_0"
    },
    {
      "children": [
        24,
        25,
        26,
        27,
        28
      ],
      "matrix": [
        -1.4611292541225915,
        8.540218361531141e-09,
        -0.4747489686007266,
        0.0,
        -0.47474896860072163,
        -2.4752374292833096e-07,
        1.461129254122572,
        0.0,
        -6.8366708901488e-08,
        1.5363219976424969,
        2.380481710812999e-07,
        0.0,
        -101.19292449951172,
        8.854574203491211,
        155.7080078125,
        1.0
      ],
      "name": "wheel.001"
    },
    {
      "mesh": 14,
      "name": "wheel.001_Material.017_0"
    },
    {
      "mesh": 15,
      "name": "wheel.001_Material.016_0"
    },
    {
      "mesh": 16,
      "name": "wheel.001_Material.015_0"
    },
    {
      "mesh": 17,
      "name": "wheel.001_Material.014_0"
    },
    {
      "mesh": 18,
      "name": "wheel.001_Material.013_0"
    },
    {
      "children": [
        30
      ],
      "matrix": [
        2.9178771424007665e-05,
        -19.79264609492534,
        -136.7071195101637,
        0.0,
        -138.1325073242065,
        -5.3900284511126866e-05,
        -2.1679248389187552e-05,
        0.0,
        -6.69508786076395e-05,
        182.18702623123966,
        -26.37728997732023,
        0.0,
        0.07867713272571564,
        71.24532318115234,
        242.91551208496094,
        1.0
      ],
      "name": "object.002"
    },
    {
      "mesh": 19,
      "name": "object.002_Material.009_0"
    },
    {
      "children": [
        32
      ],
      "matrix": [
        -6.4642181396478735,
        -9.76069806504392e-07,
        -2.5172594845257263e-06,
        0.0,
        -2.5172595582169104e-06,
        4.880345138779848e-07,
        6.464218139647929,
        0.0,
        -9.76069616456659e-07,
        6.464218139648345,
        -4.88034894244347e-07,
        0.0,
        -0.5770031213760376,
        85.05795288085938,
        -51.49921798706055,
        1.0
      ],
      "name": "object.009"
    },
    {
      "mesh": 20,
      "name": "object.009_Material.004_0"
    },
    {
      "children": [
        34
      ],
      "matrix": [
        -6.4642181396478735,
        -9.76069806504392e-07,
        -2.5172594845257263e-06,
        0.0,
        -2.5172595582169104e-06,
        4.880345138779848e-07,
        6.464218139647929,
        0.0,
        -9.76069616456659e-07,
        6.464218139648345,
        -4.88034894244347e-07,
        0.0,
        -0.5770180225372314,
        18.854251861572266,
        -50.985050201416016,
        1.0
      ],
      "name": "object.008"
    },
    {
      "mesh": 21,
      "name": "object.008_chr_0"
    },
    {
      "children": [
        36
      ],
      "matrix": [
        -6.4642181396478735,
        -9.76069806504392e-07,
        -2.5172594845257263e-06,
        0.0,
        -2.5172595582169104e-06,
        4.880345138779848e-07,
        6.464218139647929,
        0.0,
        -9.76069616456659e-07,
        6.464218139648345,
        -4.88034894244347e-07,
        0.0,
        -0.5769450068473816,
        95.72018432617188,
        -310.6491394042969,
        1.0
      ],
      "name": "object.007"
    },
    {
      "mesh": 22,
      "name": "object.007_Material.005_0"
    },
    {
      "children": [
        38
      ],
      "matrix": [
        -6.4642181396478735,
        -9.76069806504392e-07,
        -2.5172594845257263e-06,
        0.0,
        -2.5172595582169104e-06,
        4.880345138779848e-07,
        6.464218139647929,
        0.0,
        -9.76069616456659e-07,
        6.464218139648345,
        -4.88034894244347e-07,
        0.0,
        -0.5769368410110474,
        71.8248519897461,
        -324.8110656738281,
        1.0
      ],
      "name": "object.005"
    },
    {
      "mesh": 23,
      "name": "object.005_red_0"
    },
    {
      "children": [
        40
      ],
      "matrix": [
        -6.4642181396478735,
        -9.76069806504392e-07,
        -2.5172594845257263e-06,
        0.0,
        -2.5172595582169104e-06,
        4.880345138779848e-07,
        6.464218139647929,
        0.0,
        -9.76069616456659e-07,
        6.464218139648345,
        -4.88034894244347e-07,
        0.0,
        -0.5771163702011108,
        60.78193664550781,
        211.73770141601563,
        1.0
      ],
      "name": "object.004"
    },
    {
      "mesh": 24,
      "name": "object.004_Material.006_0"
    },
    {
      "children": [
        42
      ],
      "matrix": [
        -6.4642181396478735,
        -9.76069806504392e-07,
        -2.5172594845257263e-06,
        0.0,
        -2.5172595582169104e-06,
        4.880345138779848e-07,
        6.464218139647929,
        0.0,
        -9.76069616456659e-07,
        6.464218139648345,
        -4.88034894244347e-07,
        0.0,
        -0.5770124197006226,
        131.86114501953125,
        -120.30741882324219,
        1.0
      ],
      "name": "object.003"
    },
    {
      "mesh": 25,
      "name": "object.003_Material.002_0"
    },
    {
      "children": [
        44
      ],
      "matrix": [
        -6.4642181396478735,
        -9.76069806504392e-07,
        -2.5172594845257263e-06,
        0.0,
        -2.5172595582169104e-06,
        4.880345138779848e-07,
        6.464218139647929,
        0.0,
        -9.76069616456659e-07,
        6.464218139648345,
        -4.88034894244347e-07,
        0.0,
        -0.5771026015281677,
        79.50198364257813,
        -46.6613883972168,
        1.0
      ],
      "name": "object.001"
    },
    {
      "mesh": 26,
      "name": "object.001_Material.003_0"
    },
    {
      "children": [
        46
      ],
      "matrix": [
        -6.4642181396478735,
        -9.76069806504392e-07,
        -2.5172594845257263e-06,
        0.0,
        -2.5172595582169104e-06,
        4.880345138779848e-07,
        6.464218139647929,
        0.0,
        -9.76069616456659e-07,
        6.464218139648345,
        -4.88034894244347e-07,
        0.0,
        -0.5770262479782104,
        62.81617736816406,
        -46.607601165771484,
        1.0
      ],
      "name": "object.000"
    },
    {
      "mesh": 27,
      "name": "object.000_Material.001_0"
    },
    {
      "children": [
        48
      ],
      "matrix": [
        -6.4642181396478735,
        -9.76069806504392e-07,
        -2.5172594845257263e-06,
        0.0,
        -2.5172595582169104e-06,
        4.880345138779848e-07,
        6.464218139647929,
        0.0,
        -9.76069616456659e-07,
        6.464218139648345,
        -4.88034894244347e-07,
        0.0,
        -0.5771026015281677,
        79.50198364257813,
        -46.86139678955078,
        1.0
      ],
      "name": "object.006"
    },
    {
      "mesh": 28,
      "name": "object.006_Material.007_0"
    },
    {
      "children": [
        50
      ],
      "matrix": [
        1.2114441394805908,
        2.50087058740999e-16,
        -3.6806339300254896e-16,
        0.0,
        3.6806327826200893e-16,
        -1.12629195120046,
        0.4461651529903804,
        0.0,
        -2.5008722760927976e-16,
        -0.4461651529903804,
        -1.12629195120046,
        0.0,
        101.19338989257813,
        8.854574203491211,
        155.7084503173828,
        1.0
      ],
      "name": "cal"
    },
    {
      "mesh": 29,
      "name": "cal_Material.018_0"
    },
    {
      "children": [
        52,
        53,
        54,
        55,
        56
      ],
      "matrix": [
        1.4611291562098814,
        -2.7706836871548184e-08,
        0.4747496557148994,
        0.0,
        0.4747496557148976,
        -7.615727229592072e-08,
        -1.4611291562098803,
        0.0,
        4.988465579311616e-08,
        1.536321997642515,
        -6.386798125543645e-08,
        0.0,
        101.19338989257813,
        8.854574203491211,
        155.7080078125,
        1.0
      ],
      "name": "wheel"
    },
    {
      "mesh": 30,
      "name": "wheel_Material.017_0"
    },
    {
      "mesh": 31,
      "name": "wheel_Material.016_0"
    },
    {
      "mesh": 32,
      "name": "wheel_Material.015_0"
    },
    {
      "mesh": 33,
      "name": "wheel_Material.014_0"
    },
    {
      "mesh": 34,
      "name": "wheel_Material.013_0"
    },
    {
      "children": [
        58
      ],
      "matrix": [
        -6.438750743865405,
        -9.722245167777215e-07,
        -2.5073421144440466e-06,
        0.0,
        -2.50734218784492e-06,
        4.861117804782248e-07,
        6.43875074386546,
        0.0,
        -9.722243274787284e-07,
        6.438750743865874,
        -4.861121593460391e-07,
        0.0,
        -0.4418964087963104,
        -11.556319236755371,
        20.722761154174805,
        1.0
      ],
      "name": "f_lights"
    },
    {
      "mesh": 35,
      "name": "f_lights_refl_0"
    }
  ],
  "samplers": [
    {
      "magFilter": 9729,
      "minFilter": 9987,
      "wrapS": 10497,
      "wrapT": 10497
    }
  ],
  "scene": 0,
  "scenes": [
    {
      "name": "Sketchfab_Scene",
      "nodes": [
        0
      ]
    }
  ],
  "textures": [
    {
      "sampler": 0,
      "source": 0
    },
    {
      "sampler": 0,
      "source": 1
    }
  ]
}
